<mxfile host="app.diagrams.net" modified="2024-02-26T18:53:41.225Z" agent="Mozilla/5.0 (Windows NT 10.0; Win64; x64) AppleWebKit/537.36 (KHTML, like Gecko) Chrome/121.0.0.0 Safari/537.36" etag="jmi3ICvfXuO16ZKo9Oct" version="23.1.6" type="device" pages="2">
  <diagram name="Exercice1 - 1- modèle entité-relationnel" id="fhU_g64vVES2-TFn09sz">
    <mxGraphModel dx="1023" dy="2075" grid="1" gridSize="10" guides="1" tooltips="1" connect="1" arrows="1" fold="1" page="1" pageScale="1" pageWidth="827" pageHeight="1169" math="0" shadow="0">
      <root>
        <mxCell id="0" />
        <mxCell id="1" parent="0" />
        <mxCell id="cVERZErIQEBMqaUjW_ca-4" value="" style="edgeStyle=orthogonalEdgeStyle;rounded=0;orthogonalLoop=1;jettySize=auto;html=1;" edge="1" parent="1" source="cVERZErIQEBMqaUjW_ca-2" target="cVERZErIQEBMqaUjW_ca-3">
          <mxGeometry relative="1" as="geometry" />
        </mxCell>
        <mxCell id="cVERZErIQEBMqaUjW_ca-17" value="" style="edgeStyle=orthogonalEdgeStyle;rounded=0;orthogonalLoop=1;jettySize=auto;html=1;" edge="1" parent="1" source="cVERZErIQEBMqaUjW_ca-2" target="cVERZErIQEBMqaUjW_ca-3">
          <mxGeometry relative="1" as="geometry" />
        </mxCell>
        <mxCell id="cVERZErIQEBMqaUjW_ca-2" value="Candidat(étudiant)" style="rounded=0;whiteSpace=wrap;html=1;" vertex="1" parent="1">
          <mxGeometry x="160" y="120" width="120" height="60" as="geometry" />
        </mxCell>
        <mxCell id="cVERZErIQEBMqaUjW_ca-3" value="IUC" style="ellipse;whiteSpace=wrap;html=1;rounded=0;" vertex="1" parent="1">
          <mxGeometry x="180" width="80" height="50" as="geometry" />
        </mxCell>
        <mxCell id="cVERZErIQEBMqaUjW_ca-7" value="Prénom" style="ellipse;whiteSpace=wrap;html=1;rounded=0;" vertex="1" parent="1">
          <mxGeometry y="70" width="80" height="50" as="geometry" />
        </mxCell>
        <mxCell id="cVERZErIQEBMqaUjW_ca-11" value="Date de naissance" style="ellipse;whiteSpace=wrap;html=1;aspect=fixed;" vertex="1" parent="1">
          <mxGeometry x="80" y="-10" width="60" height="60" as="geometry" />
        </mxCell>
        <mxCell id="cVERZErIQEBMqaUjW_ca-12" value="Pays d&#39;origine" style="ellipse;whiteSpace=wrap;html=1;aspect=fixed;" vertex="1" parent="1">
          <mxGeometry x="270" y="-10" width="60" height="60" as="geometry" />
        </mxCell>
        <mxCell id="cVERZErIQEBMqaUjW_ca-14" value="" style="endArrow=classic;html=1;rounded=0;entryX=0.65;entryY=1.058;entryDx=0;entryDy=0;entryPerimeter=0;" edge="1" parent="1" target="cVERZErIQEBMqaUjW_ca-11">
          <mxGeometry width="50" height="50" relative="1" as="geometry">
            <mxPoint x="220" y="120" as="sourcePoint" />
            <mxPoint x="280" y="230" as="targetPoint" />
          </mxGeometry>
        </mxCell>
        <mxCell id="cVERZErIQEBMqaUjW_ca-16" value="" style="endArrow=classic;html=1;rounded=0;entryX=0.363;entryY=0.997;entryDx=0;entryDy=0;entryPerimeter=0;exitX=0.5;exitY=0;exitDx=0;exitDy=0;" edge="1" parent="1" source="cVERZErIQEBMqaUjW_ca-2" target="cVERZErIQEBMqaUjW_ca-12">
          <mxGeometry width="50" height="50" relative="1" as="geometry">
            <mxPoint x="250" y="120" as="sourcePoint" />
            <mxPoint x="300" y="70" as="targetPoint" />
          </mxGeometry>
        </mxCell>
        <mxCell id="cVERZErIQEBMqaUjW_ca-19" value="" style="endArrow=classic;html=1;rounded=0;" edge="1" parent="1" target="cVERZErIQEBMqaUjW_ca-20">
          <mxGeometry width="50" height="50" relative="1" as="geometry">
            <mxPoint x="220" y="120" as="sourcePoint" />
            <mxPoint x="390" y="70" as="targetPoint" />
          </mxGeometry>
        </mxCell>
        <mxCell id="cVERZErIQEBMqaUjW_ca-20" value="Nom" style="ellipse;whiteSpace=wrap;html=1;aspect=fixed;" vertex="1" parent="1">
          <mxGeometry x="350" y="60" width="50" height="50" as="geometry" />
        </mxCell>
        <mxCell id="cVERZErIQEBMqaUjW_ca-22" value="" style="endArrow=classic;html=1;rounded=0;" edge="1" parent="1">
          <mxGeometry width="50" height="50" relative="1" as="geometry">
            <mxPoint x="220" y="120" as="sourcePoint" />
            <mxPoint x="80" y="100" as="targetPoint" />
          </mxGeometry>
        </mxCell>
        <mxCell id="cVERZErIQEBMqaUjW_ca-23" value="" style="endArrow=classic;html=1;rounded=0;entryX=0.994;entryY=0.849;entryDx=0;entryDy=0;entryPerimeter=0;" edge="1" parent="1" target="cVERZErIQEBMqaUjW_ca-25">
          <mxGeometry width="50" height="50" relative="1" as="geometry">
            <mxPoint x="220" y="120" as="sourcePoint" />
            <mxPoint x="105.85748901047339" y="55.79483756839136" as="targetPoint" />
          </mxGeometry>
        </mxCell>
        <mxCell id="cVERZErIQEBMqaUjW_ca-25" value="Numéro de téléphone" style="ellipse;whiteSpace=wrap;html=1;aspect=fixed;" vertex="1" parent="1">
          <mxGeometry y="-15" width="65" height="65" as="geometry" />
        </mxCell>
        <mxCell id="cVERZErIQEBMqaUjW_ca-26" value="Numéro de passeport" style="ellipse;whiteSpace=wrap;html=1;aspect=fixed;" vertex="1" parent="1">
          <mxGeometry x="340" y="-40" width="65" height="65" as="geometry" />
        </mxCell>
        <mxCell id="cVERZErIQEBMqaUjW_ca-27" value="" style="endArrow=classic;html=1;rounded=0;entryX=0.206;entryY=0.963;entryDx=0;entryDy=0;entryPerimeter=0;" edge="1" parent="1" target="cVERZErIQEBMqaUjW_ca-26">
          <mxGeometry width="50" height="50" relative="1" as="geometry">
            <mxPoint x="220" y="120" as="sourcePoint" />
            <mxPoint x="270" y="230" as="targetPoint" />
          </mxGeometry>
        </mxCell>
        <mxCell id="cVERZErIQEBMqaUjW_ca-59" value="" style="edgeStyle=orthogonalEdgeStyle;rounded=0;orthogonalLoop=1;jettySize=auto;html=1;" edge="1" parent="1" source="cVERZErIQEBMqaUjW_ca-28" target="cVERZErIQEBMqaUjW_ca-58">
          <mxGeometry relative="1" as="geometry" />
        </mxCell>
        <mxCell id="cVERZErIQEBMqaUjW_ca-28" value="statut matrimonial" style="ellipse;whiteSpace=wrap;html=1;aspect=fixed;" vertex="1" parent="1">
          <mxGeometry x="130" y="-40" width="60" height="60" as="geometry" />
        </mxCell>
        <mxCell id="cVERZErIQEBMqaUjW_ca-29" value="" style="endArrow=classic;html=1;rounded=0;exitX=0.5;exitY=0;exitDx=0;exitDy=0;" edge="1" parent="1" source="cVERZErIQEBMqaUjW_ca-2">
          <mxGeometry width="50" height="50" relative="1" as="geometry">
            <mxPoint x="120" y="70" as="sourcePoint" />
            <mxPoint x="160" y="20" as="targetPoint" />
          </mxGeometry>
        </mxCell>
        <mxCell id="cVERZErIQEBMqaUjW_ca-57" value="" style="edgeStyle=orthogonalEdgeStyle;rounded=0;orthogonalLoop=1;jettySize=auto;html=1;" edge="1" parent="1" source="cVERZErIQEBMqaUjW_ca-30" target="cVERZErIQEBMqaUjW_ca-56">
          <mxGeometry relative="1" as="geometry" />
        </mxCell>
        <mxCell id="cVERZErIQEBMqaUjW_ca-30" value="programme d&#39;immigration" style="rounded=0;whiteSpace=wrap;html=1;" vertex="1" parent="1">
          <mxGeometry x="690" y="610" width="120" height="60" as="geometry" />
        </mxCell>
        <mxCell id="cVERZErIQEBMqaUjW_ca-33" value="Test" style="rounded=0;whiteSpace=wrap;html=1;" vertex="1" parent="1">
          <mxGeometry x="160" y="310" width="120" height="60" as="geometry" />
        </mxCell>
        <mxCell id="cVERZErIQEBMqaUjW_ca-50" value="" style="edgeStyle=orthogonalEdgeStyle;rounded=0;orthogonalLoop=1;jettySize=auto;html=1;" edge="1" parent="1" source="cVERZErIQEBMqaUjW_ca-34" target="cVERZErIQEBMqaUjW_ca-49">
          <mxGeometry relative="1" as="geometry" />
        </mxCell>
        <mxCell id="cVERZErIQEBMqaUjW_ca-34" value="Agent" style="rounded=0;whiteSpace=wrap;html=1;" vertex="1" parent="1">
          <mxGeometry x="690" y="150" width="120" height="60" as="geometry" />
        </mxCell>
        <mxCell id="cVERZErIQEBMqaUjW_ca-35" value="consultant" style="rounded=0;whiteSpace=wrap;html=1;" vertex="1" parent="1">
          <mxGeometry x="305" y="395" width="80" height="60" as="geometry" />
        </mxCell>
        <mxCell id="cVERZErIQEBMqaUjW_ca-43" value="" style="edgeStyle=orthogonalEdgeStyle;rounded=0;orthogonalLoop=1;jettySize=auto;html=1;" edge="1" parent="1" source="cVERZErIQEBMqaUjW_ca-36" target="cVERZErIQEBMqaUjW_ca-42">
          <mxGeometry relative="1" as="geometry" />
        </mxCell>
        <mxCell id="cVERZErIQEBMqaUjW_ca-36" value="Dossier d&#39;immigration" style="rounded=0;whiteSpace=wrap;html=1;" vertex="1" parent="1">
          <mxGeometry x="690" y="360" width="120" height="60" as="geometry" />
        </mxCell>
        <mxCell id="cVERZErIQEBMqaUjW_ca-38" value="" style="endArrow=none;html=1;rounded=0;exitX=0.5;exitY=0;exitDx=0;exitDy=0;" edge="1" parent="1" source="cVERZErIQEBMqaUjW_ca-36" target="cVERZErIQEBMqaUjW_ca-39">
          <mxGeometry width="50" height="50" relative="1" as="geometry">
            <mxPoint x="90" y="500" as="sourcePoint" />
            <mxPoint x="140" y="450" as="targetPoint" />
          </mxGeometry>
        </mxCell>
        <mxCell id="cVERZErIQEBMqaUjW_ca-39" value="suivre" style="rhombus;whiteSpace=wrap;html=1;" vertex="1" parent="1">
          <mxGeometry x="710" y="270" width="80" height="50" as="geometry" />
        </mxCell>
        <mxCell id="cVERZErIQEBMqaUjW_ca-41" value="" style="endArrow=none;html=1;rounded=0;exitX=0.5;exitY=0;exitDx=0;exitDy=0;entryX=0.5;entryY=1;entryDx=0;entryDy=0;" edge="1" parent="1" source="cVERZErIQEBMqaUjW_ca-39" target="cVERZErIQEBMqaUjW_ca-34">
          <mxGeometry width="50" height="50" relative="1" as="geometry">
            <mxPoint x="760" y="370" as="sourcePoint" />
            <mxPoint x="760" y="330" as="targetPoint" />
          </mxGeometry>
        </mxCell>
        <mxCell id="cVERZErIQEBMqaUjW_ca-42" value="candidatures" style="ellipse;whiteSpace=wrap;html=1;rounded=0;" vertex="1" parent="1">
          <mxGeometry x="850" y="375" width="80" height="30" as="geometry" />
        </mxCell>
        <mxCell id="cVERZErIQEBMqaUjW_ca-44" value="effectuer" style="rhombus;whiteSpace=wrap;html=1;" vertex="1" parent="1">
          <mxGeometry x="180" y="220" width="80" height="50" as="geometry" />
        </mxCell>
        <mxCell id="cVERZErIQEBMqaUjW_ca-46" value="" style="endArrow=none;html=1;rounded=0;entryX=0.5;entryY=1;entryDx=0;entryDy=0;" edge="1" parent="1">
          <mxGeometry width="50" height="50" relative="1" as="geometry">
            <mxPoint x="220" y="220" as="sourcePoint" />
            <mxPoint x="219.5" y="180" as="targetPoint" />
          </mxGeometry>
        </mxCell>
        <mxCell id="cVERZErIQEBMqaUjW_ca-47" value="" style="endArrow=none;html=1;rounded=0;" edge="1" parent="1">
          <mxGeometry width="50" height="50" relative="1" as="geometry">
            <mxPoint x="220" y="310" as="sourcePoint" />
            <mxPoint x="220" y="270" as="targetPoint" />
          </mxGeometry>
        </mxCell>
        <mxCell id="cVERZErIQEBMqaUjW_ca-49" value="compte" style="ellipse;whiteSpace=wrap;html=1;rounded=0;" vertex="1" parent="1">
          <mxGeometry x="710" y="40" width="80" height="40" as="geometry" />
        </mxCell>
        <mxCell id="cVERZErIQEBMqaUjW_ca-55" value="0,10" style="rounded=1;whiteSpace=wrap;html=1;" vertex="1" parent="1">
          <mxGeometry x="720" y="330" width="60" height="20" as="geometry" />
        </mxCell>
        <mxCell id="cVERZErIQEBMqaUjW_ca-56" value="Nom" style="ellipse;whiteSpace=wrap;html=1;rounded=0;" vertex="1" parent="1">
          <mxGeometry x="710" y="770" width="80" height="30" as="geometry" />
        </mxCell>
        <mxCell id="cVERZErIQEBMqaUjW_ca-58" value="célibataire" style="ellipse;whiteSpace=wrap;html=1;" vertex="1" parent="1">
          <mxGeometry x="120" y="-140" width="80" height="30" as="geometry" />
        </mxCell>
        <mxCell id="cVERZErIQEBMqaUjW_ca-60" value="" style="endArrow=classic;html=1;rounded=0;exitX=0.5;exitY=0;exitDx=0;exitDy=0;" edge="1" parent="1" source="cVERZErIQEBMqaUjW_ca-28" target="cVERZErIQEBMqaUjW_ca-61">
          <mxGeometry width="50" height="50" relative="1" as="geometry">
            <mxPoint x="280" y="60" as="sourcePoint" />
            <mxPoint x="330" y="10" as="targetPoint" />
            <Array as="points" />
          </mxGeometry>
        </mxCell>
        <mxCell id="cVERZErIQEBMqaUjW_ca-88" value="" style="edgeStyle=orthogonalEdgeStyle;rounded=0;orthogonalLoop=1;jettySize=auto;html=1;" edge="1" parent="1" source="cVERZErIQEBMqaUjW_ca-61">
          <mxGeometry relative="1" as="geometry">
            <mxPoint x="245" y="-290" as="targetPoint" />
          </mxGeometry>
        </mxCell>
        <mxCell id="cVERZErIQEBMqaUjW_ca-61" value="en relation" style="ellipse;whiteSpace=wrap;html=1;" vertex="1" parent="1">
          <mxGeometry x="200" y="-140" width="90" height="30" as="geometry" />
        </mxCell>
        <mxCell id="cVERZErIQEBMqaUjW_ca-89" style="edgeStyle=orthogonalEdgeStyle;rounded=0;orthogonalLoop=1;jettySize=auto;html=1;exitX=0.5;exitY=1;exitDx=0;exitDy=0;" edge="1" parent="1">
          <mxGeometry relative="1" as="geometry">
            <mxPoint x="245" y="-290" as="sourcePoint" />
            <mxPoint x="245" y="-290" as="targetPoint" />
          </mxGeometry>
        </mxCell>
        <mxCell id="cVERZErIQEBMqaUjW_ca-93" value="" style="endArrow=classic;html=1;rounded=0;" edge="1" parent="1" target="cVERZErIQEBMqaUjW_ca-94">
          <mxGeometry width="50" height="50" relative="1" as="geometry">
            <mxPoint x="210" y="420" as="sourcePoint" />
            <mxPoint x="250" y="450" as="targetPoint" />
          </mxGeometry>
        </mxCell>
        <mxCell id="cVERZErIQEBMqaUjW_ca-105" value="" style="edgeStyle=orthogonalEdgeStyle;rounded=0;orthogonalLoop=1;jettySize=auto;html=1;" edge="1" parent="1" source="cVERZErIQEBMqaUjW_ca-94" target="cVERZErIQEBMqaUjW_ca-104">
          <mxGeometry relative="1" as="geometry" />
        </mxCell>
        <mxCell id="cVERZErIQEBMqaUjW_ca-94" value="langue française" style="ellipse;whiteSpace=wrap;html=1;aspect=fixed;" vertex="1" parent="1">
          <mxGeometry x="230" y="480" width="60" height="60" as="geometry" />
        </mxCell>
        <mxCell id="cVERZErIQEBMqaUjW_ca-96" value="" style="endArrow=classic;html=1;rounded=0;" edge="1" parent="1">
          <mxGeometry width="50" height="50" relative="1" as="geometry">
            <mxPoint x="210" y="420" as="sourcePoint" />
            <mxPoint x="160" y="460" as="targetPoint" />
          </mxGeometry>
        </mxCell>
        <mxCell id="cVERZErIQEBMqaUjW_ca-97" value="langue anglaise" style="ellipse;whiteSpace=wrap;html=1;aspect=fixed;" vertex="1" parent="1">
          <mxGeometry x="120" y="460" width="60" height="60" as="geometry" />
        </mxCell>
        <mxCell id="cVERZErIQEBMqaUjW_ca-98" value="" style="swimlane;startSize=0;" vertex="1" parent="1">
          <mxGeometry x="90" y="-480" width="200" height="190" as="geometry" />
        </mxCell>
        <mxCell id="cVERZErIQEBMqaUjW_ca-100" value="-numéro de téléphone&amp;nbsp;&lt;br&gt;-IUC&lt;br&gt;-Pays d&#39;orgine&lt;br&gt;- date de naissance&lt;br&gt;-statut matrimonial&lt;br&gt;-numéro de passeport&lt;br&gt;-Nom&lt;br&gt;-Prénom&lt;br&gt;-résultat du test" style="text;html=1;align=center;verticalAlign=middle;resizable=0;points=[];autosize=1;strokeColor=none;fillColor=none;" vertex="1" parent="cVERZErIQEBMqaUjW_ca-98">
          <mxGeometry x="30" y="50" width="140" height="140" as="geometry" />
        </mxCell>
        <mxCell id="cVERZErIQEBMqaUjW_ca-103" value="" style="edgeStyle=orthogonalEdgeStyle;rounded=0;orthogonalLoop=1;jettySize=auto;html=1;" edge="1" parent="1" source="cVERZErIQEBMqaUjW_ca-102" target="cVERZErIQEBMqaUjW_ca-97">
          <mxGeometry relative="1" as="geometry" />
        </mxCell>
        <mxCell id="cVERZErIQEBMqaUjW_ca-102" value="-expression écrite&lt;br&gt;-expression orale&lt;br&gt;-écoute&lt;br&gt;-lecture" style="whiteSpace=wrap;html=1;aspect=fixed;" vertex="1" parent="1">
          <mxGeometry x="105" y="585" width="90" height="90" as="geometry" />
        </mxCell>
        <mxCell id="cVERZErIQEBMqaUjW_ca-104" value="-writing&lt;br&gt;-speaking&lt;br&gt;-reading" style="whiteSpace=wrap;html=1;" vertex="1" parent="1">
          <mxGeometry x="215" y="640" width="90" height="90" as="geometry" />
        </mxCell>
        <mxCell id="cVERZErIQEBMqaUjW_ca-107" value="" style="endArrow=classic;html=1;rounded=0;" edge="1" parent="1" target="cVERZErIQEBMqaUjW_ca-108">
          <mxGeometry width="50" height="50" relative="1" as="geometry">
            <mxPoint x="220" y="370" as="sourcePoint" />
            <mxPoint x="100" y="420" as="targetPoint" />
          </mxGeometry>
        </mxCell>
        <mxCell id="cVERZErIQEBMqaUjW_ca-108" value="date" style="ellipse;whiteSpace=wrap;html=1;aspect=fixed;" vertex="1" parent="1">
          <mxGeometry x="40" y="400" width="50" height="50" as="geometry" />
        </mxCell>
        <mxCell id="cVERZErIQEBMqaUjW_ca-109" value="Nom" style="ellipse;whiteSpace=wrap;html=1;rounded=0;" vertex="1" parent="1">
          <mxGeometry x="180" y="390" width="80" height="30" as="geometry" />
        </mxCell>
        <mxCell id="cVERZErIQEBMqaUjW_ca-111" value="" style="endArrow=classic;html=1;rounded=0;exitX=0.5;exitY=1;exitDx=0;exitDy=0;" edge="1" parent="1" source="cVERZErIQEBMqaUjW_ca-33">
          <mxGeometry width="50" height="50" relative="1" as="geometry">
            <mxPoint x="180" y="440" as="sourcePoint" />
            <mxPoint x="230" y="390" as="targetPoint" />
          </mxGeometry>
        </mxCell>
        <mxCell id="cVERZErIQEBMqaUjW_ca-112" value="" style="endArrow=classic;html=1;rounded=0;" edge="1" parent="1" target="cVERZErIQEBMqaUjW_ca-113">
          <mxGeometry width="50" height="50" relative="1" as="geometry">
            <mxPoint x="215" y="120" as="sourcePoint" />
            <mxPoint x="280" y="-60" as="targetPoint" />
          </mxGeometry>
        </mxCell>
        <mxCell id="cVERZErIQEBMqaUjW_ca-113" value="résultat du test" style="ellipse;whiteSpace=wrap;html=1;aspect=fixed;" vertex="1" parent="1">
          <mxGeometry x="240" y="-70" width="50" height="50" as="geometry" />
        </mxCell>
        <mxCell id="cVERZErIQEBMqaUjW_ca-114" value="1,1" style="rounded=1;whiteSpace=wrap;html=1;" vertex="1" parent="1">
          <mxGeometry x="720" y="230" width="60" height="20" as="geometry" />
        </mxCell>
        <mxCell id="cVERZErIQEBMqaUjW_ca-115" value="avoir" style="rhombus;whiteSpace=wrap;html=1;" vertex="1" parent="1">
          <mxGeometry x="420" y="240" width="80" height="50" as="geometry" />
        </mxCell>
        <mxCell id="cVERZErIQEBMqaUjW_ca-116" value="" style="endArrow=none;html=1;rounded=0;entryX=1;entryY=0.5;entryDx=0;entryDy=0;exitX=0;exitY=0.5;exitDx=0;exitDy=0;" edge="1" parent="1" source="cVERZErIQEBMqaUjW_ca-118" target="cVERZErIQEBMqaUjW_ca-2">
          <mxGeometry width="50" height="50" relative="1" as="geometry">
            <mxPoint x="230" y="230" as="sourcePoint" />
            <mxPoint x="229.5" y="190" as="targetPoint" />
          </mxGeometry>
        </mxCell>
        <mxCell id="cVERZErIQEBMqaUjW_ca-117" value="" style="endArrow=none;html=1;rounded=0;entryX=0;entryY=0.5;entryDx=0;entryDy=0;exitX=1;exitY=0.5;exitDx=0;exitDy=0;" edge="1" parent="1" source="cVERZErIQEBMqaUjW_ca-120" target="cVERZErIQEBMqaUjW_ca-36">
          <mxGeometry width="50" height="50" relative="1" as="geometry">
            <mxPoint x="240" y="240" as="sourcePoint" />
            <mxPoint x="239.5" y="200" as="targetPoint" />
          </mxGeometry>
        </mxCell>
        <mxCell id="cVERZErIQEBMqaUjW_ca-119" value="" style="endArrow=none;html=1;rounded=0;entryX=1;entryY=0.5;entryDx=0;entryDy=0;exitX=0;exitY=0.5;exitDx=0;exitDy=0;" edge="1" parent="1" source="cVERZErIQEBMqaUjW_ca-115" target="cVERZErIQEBMqaUjW_ca-118">
          <mxGeometry width="50" height="50" relative="1" as="geometry">
            <mxPoint x="420" y="265" as="sourcePoint" />
            <mxPoint x="280" y="150" as="targetPoint" />
          </mxGeometry>
        </mxCell>
        <mxCell id="cVERZErIQEBMqaUjW_ca-118" value="1,1" style="rounded=1;whiteSpace=wrap;html=1;arcSize=0;" vertex="1" parent="1">
          <mxGeometry x="330" y="200" width="60" height="20" as="geometry" />
        </mxCell>
        <mxCell id="cVERZErIQEBMqaUjW_ca-122" value="ajouter&amp;nbsp; commentaires" style="rhombus;whiteSpace=wrap;html=1;" vertex="1" parent="1">
          <mxGeometry x="500" y="390" width="110" height="70" as="geometry" />
        </mxCell>
        <mxCell id="cVERZErIQEBMqaUjW_ca-133" value="" style="endArrow=none;html=1;rounded=0;entryX=0;entryY=0.5;entryDx=0;entryDy=0;exitX=1;exitY=0.5;exitDx=0;exitDy=0;" edge="1" parent="1" source="cVERZErIQEBMqaUjW_ca-135" target="cVERZErIQEBMqaUjW_ca-122">
          <mxGeometry width="50" height="50" relative="1" as="geometry">
            <mxPoint x="510" y="275" as="sourcePoint" />
            <mxPoint x="700" y="400" as="targetPoint" />
          </mxGeometry>
        </mxCell>
        <mxCell id="cVERZErIQEBMqaUjW_ca-134" value="" style="endArrow=none;html=1;rounded=0;entryX=0;entryY=0.5;entryDx=0;entryDy=0;exitX=1;exitY=0.5;exitDx=0;exitDy=0;" edge="1" parent="1" source="cVERZErIQEBMqaUjW_ca-115" target="cVERZErIQEBMqaUjW_ca-120">
          <mxGeometry width="50" height="50" relative="1" as="geometry">
            <mxPoint x="500" y="265" as="sourcePoint" />
            <mxPoint x="690" y="390" as="targetPoint" />
          </mxGeometry>
        </mxCell>
        <mxCell id="cVERZErIQEBMqaUjW_ca-120" value="1,1" style="rounded=1;whiteSpace=wrap;html=1;" vertex="1" parent="1">
          <mxGeometry x="550" y="310" width="60" height="20" as="geometry" />
        </mxCell>
        <mxCell id="cVERZErIQEBMqaUjW_ca-136" value="" style="endArrow=none;html=1;rounded=0;entryX=0;entryY=0.5;entryDx=0;entryDy=0;exitX=1;exitY=0.5;exitDx=0;exitDy=0;" edge="1" parent="1" source="cVERZErIQEBMqaUjW_ca-35" target="cVERZErIQEBMqaUjW_ca-135">
          <mxGeometry width="50" height="50" relative="1" as="geometry">
            <mxPoint x="385" y="425" as="sourcePoint" />
            <mxPoint x="500" y="425" as="targetPoint" />
          </mxGeometry>
        </mxCell>
        <mxCell id="cVERZErIQEBMqaUjW_ca-135" value="1,1" style="rounded=1;whiteSpace=wrap;html=1;" vertex="1" parent="1">
          <mxGeometry x="405" y="415" width="60" height="20" as="geometry" />
        </mxCell>
        <mxCell id="cVERZErIQEBMqaUjW_ca-137" value="" style="endArrow=none;html=1;rounded=0;entryX=0;entryY=0.5;entryDx=0;entryDy=0;exitX=1;exitY=0.5;exitDx=0;exitDy=0;" edge="1" parent="1" source="cVERZErIQEBMqaUjW_ca-138" target="cVERZErIQEBMqaUjW_ca-36">
          <mxGeometry width="50" height="50" relative="1" as="geometry">
            <mxPoint x="600" y="420" as="sourcePoint" />
            <mxPoint x="680" y="490" as="targetPoint" />
          </mxGeometry>
        </mxCell>
        <mxCell id="cVERZErIQEBMqaUjW_ca-139" value="" style="endArrow=none;html=1;rounded=0;entryX=0;entryY=0.5;entryDx=0;entryDy=0;exitX=1;exitY=0.5;exitDx=0;exitDy=0;" edge="1" parent="1" source="cVERZErIQEBMqaUjW_ca-122" target="cVERZErIQEBMqaUjW_ca-138">
          <mxGeometry width="50" height="50" relative="1" as="geometry">
            <mxPoint x="610" y="425" as="sourcePoint" />
            <mxPoint x="690" y="390" as="targetPoint" />
          </mxGeometry>
        </mxCell>
        <mxCell id="cVERZErIQEBMqaUjW_ca-138" value="0,N" style="rounded=1;whiteSpace=wrap;html=1;" vertex="1" parent="1">
          <mxGeometry x="610" y="400" width="60" height="20" as="geometry" />
        </mxCell>
        <mxCell id="cVERZErIQEBMqaUjW_ca-141" value="constitue" style="rhombus;whiteSpace=wrap;html=1;" vertex="1" parent="1">
          <mxGeometry x="695" y="480" width="110" height="70" as="geometry" />
        </mxCell>
        <mxCell id="cVERZErIQEBMqaUjW_ca-142" value="" style="endArrow=none;html=1;rounded=0;entryX=0.5;entryY=0;entryDx=0;entryDy=0;exitX=1;exitY=0.5;exitDx=0;exitDy=0;" edge="1" parent="1" target="cVERZErIQEBMqaUjW_ca-141">
          <mxGeometry width="50" height="50" relative="1" as="geometry">
            <mxPoint x="747" y="420" as="sourcePoint" />
            <mxPoint x="827" y="490" as="targetPoint" />
          </mxGeometry>
        </mxCell>
        <mxCell id="cVERZErIQEBMqaUjW_ca-144" value="" style="endArrow=none;html=1;rounded=0;entryX=0.5;entryY=0;entryDx=0;entryDy=0;exitX=1;exitY=0.5;exitDx=0;exitDy=0;" edge="1" parent="1">
          <mxGeometry width="50" height="50" relative="1" as="geometry">
            <mxPoint x="748.5" y="550" as="sourcePoint" />
            <mxPoint x="751.5" y="610" as="targetPoint" />
          </mxGeometry>
        </mxCell>
      </root>
    </mxGraphModel>
  </diagram>
  <diagram id="q_UxtAIXQPLnL3xsH4ra" name="Exercice1 - 2-modèle relationnel">
    <mxGraphModel dx="1302" dy="2151" grid="1" gridSize="10" guides="1" tooltips="1" connect="1" arrows="1" fold="1" page="1" pageScale="1" pageWidth="827" pageHeight="1169" math="0" shadow="0">
      <root>
        <mxCell id="0" />
        <mxCell id="1" parent="0" />
        <mxCell id="WblomnU5MGht0Sw9-TtA-1" value="-candidats(ID, numéro de téléphone,&amp;nbsp;&lt;span style=&quot;&quot;&gt;IUC,&amp;nbsp;&lt;/span&gt;&lt;span style=&quot;&quot;&gt;Pays d&#39;origine,&amp;nbsp;&lt;/span&gt;&lt;span style=&quot;&quot;&gt;date de naissance,&amp;nbsp;&lt;/span&gt;&lt;span style=&quot;&quot;&gt;statut matrimonial,&amp;nbsp;&lt;/span&gt;&lt;span style=&quot;&quot;&gt;numéro de passeport,&amp;nbsp;&lt;/span&gt;&lt;span style=&quot;&quot;&gt;Nom&lt;/span&gt;&lt;span style=&quot;&quot;&gt;, Prénom,&amp;nbsp;&lt;/span&gt;&lt;span style=&quot;&quot;&gt;résultat du test)&lt;/span&gt;&lt;br&gt;&lt;br&gt;-Test(ID, Nom, #Date)&lt;br&gt;-consultant()&lt;br&gt;-dossier d&#39;immigration(ID, candidatures)&lt;br&gt;-programme d&#39;immigration(ID, Nom)&lt;br&gt;-agent(agent_ID, Compte_ID)&lt;div&gt;&lt;br&gt;&lt;/div&gt;" style="whiteSpace=wrap;html=1;aspect=fixed;" vertex="1" parent="1">
          <mxGeometry x="30" y="-140" width="860" height="860" as="geometry" />
        </mxCell>
      </root>
    </mxGraphModel>
  </diagram>
</mxfile>
